<svg width="178" height="71" viewBox="0 0 178 71" fill="none" xmlns="http://www.w3.org/2000/svg">
<path fill-rule="evenodd" clip-rule="evenodd" d="M0 0H177.591V9.78612C177.591 15.1692 177.684 29.3206 178 62.9011H158.836C141.983 62.9011 139.673 62.8525 139.673 62.4962C139.673 62.1398 141.94 62.0913 177.182 62.0913L176.977 41.2367C176.865 29.766 176.772 15.979 176.772 0.809886H0.821106V62.0913H19.2346C35.4194 62.0913 37.6481 62.1398 37.6481 62.4962C37.6481 62.8525 35.414 62.893 0.139124 62.7662L0 0ZM155.525 66.1407C155.658 66.1407 155.767 66.3243 155.767 66.5456C155.767 66.767 155.516 67.8306 155.214 68.9078C154.908 69.9849 154.633 70.9055 154.6 70.9541C154.567 71.0027 154.403 71.0027 154.237 70.9541C154.035 70.8947 154.155 70.0875 154.608 68.5029C154.979 67.2043 155.391 66.1407 155.525 66.1407ZM165.757 66.1407C165.814 66.1407 166.136 66.246 166.475 66.3756C166.886 66.5321 167.266 67.0991 167.634 68.1114C167.934 68.9375 168.272 69.5611 168.384 69.4963C168.496 69.4315 168.804 68.7107 169.066 67.89C169.407 66.8264 169.68 66.4025 170.021 66.4052C170.471 66.4106 170.468 66.4862 169.983 67.693C169.702 68.3976 169.271 69.4315 169.028 69.9876C168.788 70.5438 168.403 71 168.179 71C167.915 71 167.511 70.2657 167.036 68.9078C166.458 67.2583 166.259 66.929 166.098 67.3555C165.983 67.6525 165.7 68.5946 165.465 69.4477C165.081 70.8596 164.974 71 164.292 70.9973C163.736 70.9946 163.384 70.7489 162.928 70.0524C162.563 69.4936 162.093 69.1103 161.769 69.1103C161.327 69.1103 161.223 69.2911 161.223 70.0551C161.223 70.7138 161.1 71 160.814 71C160.481 71 160.405 70.5654 160.405 66.4106H162.042C163.468 66.4106 163.717 66.4889 163.978 67.0181C164.199 67.4608 164.199 67.7902 163.978 68.2329C163.815 68.5676 163.556 68.8403 163.406 68.8403C163.256 68.8403 163.408 69.2075 163.747 69.6556C164.164 70.2117 164.412 70.3629 164.527 70.128C164.62 69.939 164.909 68.9645 165.173 67.9629C165.438 66.9614 165.7 66.1407 165.757 66.1407ZM161.973 68.3112C162.385 68.3193 162.874 68.1681 163.059 67.9737C163.321 67.6984 163.321 67.5526 163.059 67.2826C162.874 67.0964 162.385 66.9425 161.973 66.9452C161.357 66.9506 161.223 67.0694 161.223 67.6255C161.223 68.1789 161.357 68.3031 161.973 68.3112ZM147.785 66.4619C148.339 66.5105 148.885 66.7481 149.057 67.0181C149.278 67.3663 149.267 67.6282 149.016 68.0304C148.817 68.3463 148.787 68.5703 148.948 68.5703C149.098 68.5703 149.28 68.8133 149.357 69.1103C149.43 69.4072 149.308 69.9552 149.084 70.3251C148.792 70.8056 148.437 71 147.856 71C147.406 71 146.853 70.8164 146.629 70.5951C146.402 70.3737 146.22 70.0686 146.22 69.9202C146.22 69.7717 146.372 69.6529 146.561 69.6583C146.749 69.661 147.12 69.8743 147.387 70.1307C147.846 70.5681 147.9 70.5681 148.342 70.1361C148.759 69.7258 148.765 69.6286 148.402 69.2452C148.176 69.0104 147.84 68.8214 147.652 68.8295C147.464 68.8349 147.311 68.7188 147.311 68.5703C147.311 68.4219 147.556 68.1789 147.856 68.0304C148.156 67.8819 148.402 67.639 148.402 67.4905C148.402 67.342 148.203 67.1287 147.96 67.0181C147.667 66.8831 147.44 66.9731 147.278 67.288C147.147 67.5472 146.853 67.7605 146.629 67.7605C146.402 67.7605 146.209 67.693 146.195 67.6066C146.181 67.5229 146.315 67.2124 146.492 66.9182C146.735 66.5105 147.049 66.3998 147.785 66.4619ZM150.039 66.4106L151.335 66.4052C152.047 66.4025 152.854 66.5564 153.127 66.7427C153.427 66.9506 153.689 67.5688 153.787 68.3004C153.929 69.3613 153.858 69.6097 153.233 70.2576C152.658 70.8542 152.276 71 150.039 71V66.4106ZM151.676 70.1901C152.221 70.1901 152.585 70.0101 152.767 69.6502C152.917 69.3532 153.042 68.8376 153.042 68.5029C153.045 68.1681 152.892 67.7416 152.701 67.5526C152.513 67.3663 152.019 67.2124 151.607 67.2151C150.879 67.2205 150.857 67.2664 150.857 68.7053C150.857 70.1739 150.865 70.1901 151.676 70.1901ZM157.871 66.4592C158.116 66.5078 158.697 67.477 159.218 68.7053C159.723 69.8932 160.135 70.8947 160.132 70.9325C160.132 70.9703 159.887 71 159.586 71C159.223 71 158.995 70.775 158.905 70.3251C158.79 69.7582 158.613 69.6502 157.813 69.6502C157.011 69.6502 156.837 69.7582 156.722 70.3251C156.646 70.6976 156.4 71 156.177 71C155.95 71 155.767 70.9082 155.767 70.7975C155.767 70.6868 156.002 69.9876 156.288 69.2452C156.578 68.5029 156.954 67.5526 157.126 67.1341C157.317 66.6671 157.606 66.4052 157.871 66.4592ZM170.798 66.3836L172.484 66.4646C174.058 66.5402 174.186 66.5969 174.448 67.315C174.683 67.9683 174.639 68.1519 173.573 68.9753L174.216 69.7852C174.571 70.2306 174.86 70.6868 174.86 70.7975C174.863 70.9082 174.647 70.9946 174.386 70.9892C174.124 70.9838 173.66 70.5897 173.357 70.1118C173.049 69.6232 172.541 69.2156 172.198 69.1778C171.671 69.1184 171.589 69.2371 171.589 70.0551C171.589 70.7138 171.467 71 171.18 71C170.847 71 170.774 70.5708 170.785 68.6918L170.798 66.3836ZM172.34 68.3112C172.751 68.3193 173.24 68.1654 173.425 67.9737C173.69 67.6984 173.69 67.5526 173.425 67.2826C173.24 67.0937 172.751 66.9425 172.34 66.9452C171.723 66.9479 171.589 67.0694 171.589 67.6255C171.589 68.1789 171.723 68.3031 172.34 68.3112ZM71.2016 12.5154C74.3006 12.5856 75.539 12.7287 76.9303 13.1768C77.9042 13.49 78.9299 13.903 79.2054 14.0947C79.6855 14.4295 79.6746 14.5483 78.8944 17.1426C78.3543 18.9351 77.9587 19.826 77.7105 19.7963C77.5059 19.772 76.6029 19.4778 75.7027 19.143C74.4724 18.6841 73.3212 18.5059 71.0652 18.4276C68.2691 18.3304 67.9718 18.3709 66.7006 19.0161C65.9504 19.3968 65.0993 20.042 64.8101 20.4496C64.5182 20.8573 64.2236 21.6779 64.1527 22.2719C64.079 22.882 64.1881 23.7513 64.4064 24.275C64.6191 24.7825 65.282 25.6059 65.8822 26.1053C66.4823 26.6048 68.3237 27.5685 69.9741 28.2515C71.6245 28.9318 73.8259 29.9307 74.868 30.4706C75.91 31.0078 77.364 31.9959 78.1006 32.6654C78.9244 33.4105 79.7728 34.5551 80.2993 35.6296C81.0931 37.244 81.1558 37.5814 81.1422 40.084C81.1313 42.2598 81.0004 43.1048 80.4848 44.4087C80.0238 45.5723 79.3745 46.4902 78.1824 47.6672C77.2522 48.5851 75.8609 49.6163 75.0207 50.0105C74.1942 50.3992 72.7211 50.9283 71.7472 51.1848C70.5278 51.5087 68.9538 51.6518 66.7006 51.6491C64.3163 51.6491 62.7969 51.4952 61.1083 51.0849C59.8316 50.7744 58.2058 50.2696 57.4938 49.9619C56.7818 49.6541 56.198 49.2816 56.198 49.1331C56.198 48.9846 56.5363 47.6456 56.9482 46.1581C57.3601 44.6706 57.7911 43.4558 57.903 43.4585C58.0148 43.4612 58.6286 43.7203 59.267 44.0362C59.9053 44.3521 61.3456 44.8407 62.4723 45.1187C63.678 45.4211 65.4703 45.629 66.837 45.629C68.1354 45.629 69.6958 45.4562 70.3833 45.2321C71.1334 44.9919 72.0091 44.4114 72.6338 43.7446C73.2776 43.0562 73.7195 42.2787 73.8259 41.6416C73.9214 41.0855 73.9187 40.2027 73.8232 39.6844C73.7277 39.1634 73.3431 38.3454 72.9693 37.8622C72.5983 37.3789 71.649 36.6203 70.8606 36.1749C70.0723 35.7322 68.5692 35.0465 67.5189 34.655C66.4687 34.2636 64.6301 33.4429 63.4325 32.8301C62.2349 32.22 60.6227 31.1131 59.8453 30.3707C58.9996 29.5608 58.1321 28.3703 57.6793 27.4011C57.1937 26.3564 56.88 25.1578 56.7982 24.0266C56.7136 22.8442 56.8255 21.7427 57.1392 20.6521C57.3956 19.7612 57.9957 18.4357 58.4704 17.7041C58.9451 16.9752 59.8262 15.9656 60.4263 15.4634C61.0265 14.9613 62.1313 14.2594 62.8815 13.9057C63.6316 13.5521 64.9192 13.0743 65.7458 12.8448C66.8751 12.5289 68.2255 12.4479 71.2016 12.5154ZM148.948 12.429C150.999 12.4156 152.431 12.5694 153.994 12.9663C155.195 13.2713 156.913 13.9084 157.813 14.3782C158.738 14.8614 160.353 16.1194 161.526 17.2668C163.163 18.873 163.834 19.7855 164.712 21.597C165.323 22.8577 166.044 24.6799 166.311 25.6464C166.682 26.9881 166.796 28.4189 166.799 31.7205C166.802 35.0573 166.687 36.4692 166.3 37.9297C166.022 38.969 165.4 40.6698 164.914 41.7091C164.429 42.7485 163.482 44.3278 162.811 45.2186C162.143 46.1095 160.926 47.3459 160.113 47.9668C159.297 48.5878 157.832 49.4651 156.859 49.916C155.882 50.3668 154.286 50.9418 153.312 51.1956C152.147 51.5006 150.511 51.6572 148.538 51.6545C146.55 51.6518 144.94 51.4898 143.765 51.1794C142.788 50.9175 141.132 50.2669 140.082 49.727C138.86 49.1034 137.479 48.064 136.249 46.8492C134.901 45.5156 133.993 44.3035 133.21 42.789C132.599 41.6011 131.906 39.9598 131.672 39.1445C131.44 38.3265 131.101 36.5664 130.927 35.23C130.73 33.7614 130.681 31.8906 130.799 30.5057C130.905 29.2423 131.224 27.2986 131.511 26.1863C131.797 25.0714 132.542 23.1276 133.167 21.8669C134.064 20.0501 134.762 19.1187 136.508 17.4017C137.801 16.1329 139.397 14.8776 140.355 14.3782C141.255 13.9057 142.911 13.2794 144.037 12.9852C145.423 12.6207 147.008 12.4425 148.948 12.429ZM144.037 19.3536C143.511 19.6667 142.622 20.4199 142.06 21.03C141.498 21.6375 140.668 22.8658 140.218 23.7567C139.768 24.6475 139.195 26.1971 138.947 27.1987C138.666 28.3352 138.491 30.1898 138.481 32.1255C138.472 34.2393 138.62 35.7889 138.939 36.9848C139.195 37.9486 139.804 39.517 140.289 40.4646C140.854 41.5687 141.716 42.6729 142.673 43.5233C143.519 44.2738 144.798 45.0783 145.606 45.3725C146.487 45.6938 147.745 45.8935 148.879 45.8962C149.891 45.8989 151.272 45.7127 151.948 45.4832C152.622 45.2537 153.727 44.6679 154.403 44.182C155.077 43.6933 156.081 42.6351 156.629 41.8279C157.178 41.0207 157.961 39.3875 158.37 38.1996C158.954 36.5016 159.139 35.3731 159.24 32.9354C159.33 30.6947 159.246 29.2666 158.929 27.8061C158.686 26.6911 158.122 25.0228 157.674 24.0941C157.227 23.1654 156.275 21.7886 155.563 21.0354C154.84 20.2741 153.601 19.3509 152.767 18.9567C151.643 18.4222 150.753 18.2251 149.22 18.1684C148.072 18.1252 146.697 18.244 146.083 18.4384C145.483 18.6301 144.561 19.0431 144.037 19.3536ZM13.9152 12.9582H36.2842V18.8973H21.0078V29.1559H35.193V35.0951H21.0078V51.0228H13.9152V12.9582ZM42.8312 12.9582H49.9238V51.0228H42.8312V12.9582ZM83.7501 12.9582H112.939V18.8973H102.027V51.0228H94.6618V18.8973H83.7501V12.9582ZM111.848 33.4753H126.579L126.442 38.4696L111.848 38.6046V33.4753ZM62.5405 58.0634C62.9524 58.0499 63.6889 58.2038 64.1772 58.4009C64.6655 58.5979 65.4021 59.146 65.814 59.6157C66.2259 60.0854 66.5642 60.6524 66.5642 60.8764C66.5642 61.1032 66.2341 61.3435 65.814 61.4218C65.4021 61.5 65.0583 61.5297 65.0556 61.4892C65.0502 61.4487 64.8647 61.0735 64.6464 60.6578C64.3955 60.1853 63.8881 59.7939 63.2906 59.6184C62.5623 59.4024 62.1095 59.4267 61.3811 59.721C60.7446 59.9766 60.2672 60.4355 59.9489 61.0978C59.6871 61.6431 59.4715 62.6366 59.4715 63.3061C59.4715 63.9729 59.6543 64.9448 59.8807 65.4658C60.1126 66.0003 60.6446 66.5861 61.1083 66.8156C61.5584 67.037 62.1722 67.2205 62.4723 67.2205C62.7723 67.2205 63.3561 67.0532 63.768 66.8507C64.18 66.6482 64.701 66.0975 64.9274 65.6251C65.1511 65.1553 65.5194 64.7747 65.7458 64.7828C65.9695 64.7909 66.3105 64.8881 66.4987 64.996C66.7633 65.1499 66.6978 65.4712 66.2259 66.3756C65.8576 67.0802 65.2247 67.7686 64.6546 68.079C63.9508 68.4651 63.2934 68.5811 62.1531 68.5191C61.1438 68.4651 60.3499 68.2464 59.8671 67.8954C59.4579 67.5985 58.8932 66.929 58.6123 66.4106C58.3313 65.8896 58.0203 64.7963 57.9221 63.981C57.7911 62.9092 57.8675 62.156 58.1894 61.2814C58.4349 60.6119 58.9778 59.748 59.3952 59.3565C59.8125 58.9678 60.5218 58.5224 60.9719 58.3658C61.422 58.2119 62.1285 58.0742 62.5405 58.0634ZM40.1033 58.3118H48.0143V58.9867C48.0143 59.6319 47.9406 59.6616 44.7407 59.6616V68.3004H43.3768V59.6616H41.74C40.1769 59.6616 40.1033 59.6319 40.1033 58.9867V58.3118ZM49.1054 58.3118H56.4708V59.6616H50.7422V62.3612L53.4019 62.4287C56.0398 62.4962 56.0616 62.5016 56.0616 63.1711C56.0616 63.8406 56.0398 63.846 50.7422 63.981V66.9506H56.7436V68.3004H49.1054V58.3118ZM68.2009 58.3118H68.8829C69.5485 58.3118 69.5649 58.355 69.5649 62.3612H74.4752V58.3118H76.1119V68.3004H74.4752V63.711H69.5649V66.0057C69.5649 68.2734 69.5567 68.3004 68.2009 68.3004V58.3118ZM81.8406 58.3118H84.5685C86.1889 58.3118 87.5856 58.4495 88.0111 58.6492C88.4039 58.8355 88.895 59.3214 89.1023 59.7291C89.3096 60.1367 89.4788 60.8359 89.4788 61.2814C89.4788 61.7268 89.3096 62.426 89.1023 62.8337C88.895 63.2413 88.3739 63.738 87.9429 63.9378C87.5119 64.1376 86.268 64.3805 83.1991 64.6559L83.2018 66.4781C83.2045 68.241 83.1827 68.3004 81.8406 68.3004V58.3118ZM83.2045 62.9011C86.4617 62.9173 86.9963 62.8067 87.3564 62.4368C87.6156 62.1722 87.8338 61.6512 87.8447 61.2814C87.8529 60.9088 87.6401 60.3959 87.3728 60.1394C87.0127 59.7939 86.4126 59.6724 85.0459 59.667L83.2045 59.6616V62.9011ZM90.7745 58.3118C91.4974 58.3118 91.5765 58.4576 94.4736 66.8156L96.0012 62.561C97.4689 58.4657 97.5534 58.3091 98.2763 58.3091C98.6882 58.3118 99.021 58.4036 99.0156 58.5143C99.0101 58.6249 98.1754 60.8413 97.1606 63.4411C95.3874 67.9872 95.2892 68.1681 93.707 68.3409L91.8602 63.5275C90.8454 60.8818 90.0189 58.6249 90.0189 58.5143C90.0216 58.4036 90.3626 58.3118 90.7745 58.3118ZM99.2993 58.3118H107.21V58.9867C107.21 59.6319 107.137 59.6616 103.937 59.6616V68.3004H102.573V59.6616H100.936C99.3729 59.6616 99.2993 59.6319 99.2993 58.9867V58.3118ZM111.848 58.3118H113.485V66.9506H115.803C118.095 66.9506 118.122 66.9587 118.122 68.3004H111.848V58.3118ZM117.849 58.3118H125.76V58.9867C125.76 59.6319 125.687 59.6616 122.487 59.6616V68.3004H120.85V59.6616H119.35C117.931 59.6616 117.849 59.6238 117.849 58.9867V58.3118ZM126.851 58.3118L129.511 58.3037C131.835 58.2983 132.291 58.3739 133.126 58.9165C133.649 59.2567 134.296 59.9586 134.558 60.4769C134.871 61.0924 135.035 62.0427 135.035 63.2386C135.035 64.2402 134.866 65.455 134.661 65.9382C134.454 66.4214 133.955 67.1179 133.548 67.4905C132.866 68.1141 132.583 68.1708 126.851 68.3004V58.3118ZM128.488 66.9506C131.59 66.9506 131.901 66.8534 132.558 66.2082C133.046 65.7249 133.382 65.0392 133.508 64.251C133.617 63.5814 133.581 62.5502 133.431 61.9563C133.278 61.3624 132.888 60.6335 132.564 60.3365C132.138 59.9478 131.494 59.7696 130.264 59.6967L128.556 59.5968L128.488 66.9506Z" fill="black"/>
</svg>
